o Connector
v 0.15 0 0
v 0.15 0.1 0
v 0.075000000000000011 0.1 0.12990381056766578
v 0.075000000000000011 0 0.12990381056766578
v -0.074999999999999969 0.1 0.12990381056766581
v -0.074999999999999969 0 0.12990381056766581
v -0.15 0.1 1.8369095307335657E-17
v -0.15 0 1.8369095307335657E-17
v -0.075000000000000067 0.1 -0.12990381056766576
v -0.075000000000000067 0 -0.12990381056766576
v 0.075000000000000011 0.1 -0.12990381056766578
v 0.075000000000000011 0 -0.12990381056766578
v 0.1 0.1 0
v 0.050000000000000017 0.1 0.086602540378443865
v -0.049999999999999982 0.1 0.086602540378443879
v -0.1 0.1 1.2246063538223773E-17
v -0.050000000000000044 0.1 -0.086602540378443837
v 0.050000000000000017 0.1 -0.086602540378443865
v 0.1 0 0
v 0.050000000000000017 0 0.086602540378443865
v -0.049999999999999982 0 0.086602540378443879
v -0.1 0 1.2246063538223773E-17
v -0.050000000000000044 0 -0.086602540378443837
v 0.050000000000000017 0 -0.086602540378443865
v 0 0 0
vn 0.86602540378443871 0 0.49999999999999994
vn 1.8503717077085946E-16 0 1
vn -0.8660254037844386 0 0.50000000000000022
vn -0.86602540378443893 0 -0.49999999999999967
vn -1.8503717077085933E-16 0 -1
vn 0.86602540378443871 0 -0.49999999999999994
vn 0 1 0
vn -0.8660254037844386 0 -0.49999999999999989
vn -1.3877787807814454E-16 0 -1
vn 0.86602540378443849 0 -0.50000000000000022
vn 0.86602540378443871 0 0.49999999999999983
vn 2.7755575615628894E-16 0 1
vn -0.8660254037844386 0 0.49999999999999989
g Connector
f 1//1 2//1 3//1 4//1
f 4//2 3//2 5//2 6//2
f 6//3 5//3 7//3 8//3
f 8//4 7//4 9//4 10//4
f 10//5 9//5 11//5 12//5
f 12//6 11//6 2//6 1//6
f 2//7 13//7 14//7 3//7
f 3//7 14//7 15//7 5//7
f 5//7 15//7 16//7 7//7
f 7//7 16//7 17//7 9//7
f 9//7 17//7 18//7 11//7
f 11//7 18//7 13//7 2//7
f 13//8 19//8 20//8 14//8
f 14//9 20//9 21//9 15//9
f 15//10 21//10 22//10 16//10
f 16//11 22//11 23//11 17//11
f 17//12 23//12 24//12 18//12
f 18//13 24//13 19//13 13//13
f 19//7 25//7 20//7
f 20//7 25//7 21//7
f 21//7 25//7 22//7
f 22//7 25//7 23//7
f 23//7 25//7 24//7
f 24//7 25//7 19//7
